<svg width="179" height="74" viewBox="0 0 179 74" fill="none" xmlns="http://www.w3.org/2000/svg">
<path d="M0.102051 72.8059H4.20413V56.9121C4.20413 55.0663 5.63955 52.2455 7.74163 52.2455C8.51038 52.2455 9.22705 52.6038 9.74163 53.3225L24.0458 72.8059H29.225L13.175 50.9642C12.2521 49.733 12.4583 48.3496 13.7396 47.4767C19.4312 43.633 23.4312 41.2746 29.3771 37.3246H24.0458L6.20205 51.4767C5.74163 51.835 5.3833 51.9892 5.07497 51.9892C4.51038 51.9892 4.20413 51.4767 4.20413 50.5017V21.533H0.102051V72.8059Z" fill="white"/>
<path d="M49.6287 73.8308C56.5495 73.8308 60.5995 70.7037 62.9579 65.7808L61.8808 65.1662C60.1391 69.0121 56.4975 72.2933 50.8079 72.2933C43.4745 72.2933 38.5537 67.4225 36.912 59.2704C36.6037 57.835 37.5266 56.86 39.1162 56.9121C39.6808 56.9121 40.2454 56.9121 40.912 56.9121C51.7808 56.9121 62.035 51.3746 62.035 43.8371C62.035 38.6079 56.1391 36.2996 50.8579 36.2996C40.5016 36.2996 31.9912 44.76 31.9912 54.9641C31.9912 66.5516 39.3725 73.8308 49.6287 73.8308ZM36.3995 53.4246C36.6037 45.2725 41.7829 37.3246 50.6537 37.3246C54.4475 37.3246 57.8829 39.7871 57.8829 44.1954C57.8829 51.3746 47.5766 56.0912 40.86 56.0912C39.835 56.0912 38.9641 55.9891 38.2454 55.8871C37.1683 55.7329 36.3475 54.6037 36.3995 53.4246Z" fill="white"/>
<path d="M68.3406 72.8058H72.4427V49.0662C72.4427 43.0683 79.3635 37.3246 86.2343 37.3246C91.3614 37.3246 96.0781 41.0162 96.0781 48.2475V72.8058H100.18V48.1433C100.18 41.2225 94.7968 36.2996 87.0552 36.2996C81.7218 36.2996 77.7218 38.1454 74.0322 41.6829C73.5177 42.1454 73.1593 42.4016 72.9031 42.4016C72.5947 42.4016 72.4427 41.9912 72.4427 41.1204V37.3246H68.3406V72.8058Z" fill="white"/>
<path d="M106.637 72.8058C108.739 72.3954 110.585 72.2412 112.789 72.2933C116.277 72.3954 120.481 73.8308 126.071 73.8308C132.991 73.8308 139.143 70.3954 139.143 66.1412C139.143 64.9621 138.477 64.0391 137.452 64.0391C133.3 64.0391 137.402 72.7537 125.198 72.7537C122.379 72.7537 117.508 71.6787 114.533 71.3183C112.996 71.1141 112.637 70.4996 113.56 69.3183C117.148 64.7058 125.916 53.8871 125.916 53.8871C125.916 53.8871 130.787 48.2975 138.733 37.3246C136.939 37.6329 135.041 37.9912 132.531 37.8891C129.043 37.735 126.018 36.2996 120.429 36.2996C114.483 36.2996 107.458 39.7871 107.458 44.0412C107.458 45.2225 108.125 46.1454 109.15 46.1454C113.304 46.1454 111.56 37.3246 121.404 37.3246C124.225 37.3246 127.812 38.5058 130.787 38.8641C132.377 39.0683 132.735 39.685 131.76 40.8641C128.068 45.3246 122.018 53.0662 122.018 53.0662C122.018 53.0662 114.329 62.2433 106.637 72.8058Z" fill="white"/>
<path d="M161.548 73.8308C171.955 73.8308 178.928 66.3454 178.928 55.0662C178.928 43.785 171.955 36.2996 161.548 36.2996C151.14 36.2996 144.167 43.785 144.167 55.0662C144.167 66.3454 151.14 73.8308 161.548 73.8308ZM148.371 55.0662C148.371 44.4016 153.651 37.3246 161.548 37.3246C169.444 37.3246 174.723 44.4016 174.723 55.0662C174.723 65.7308 169.444 72.8058 161.548 72.8058C153.651 72.8058 148.371 65.7308 148.371 55.0662Z" fill="white"/>
<path d="M138.171 1.28601C138.876 1.16935 139.513 1.17768 140.08 1.31101C140.651 1.44435 141.155 1.67768 141.588 2.01101C142.021 2.34018 142.371 2.74851 142.638 3.23601C142.909 3.71935 143.096 4.24851 143.196 4.81935C143.33 5.59851 143.284 6.33601 143.063 7.03601C142.846 7.73601 142.451 8.33393 141.88 8.82768C141.307 9.31726 140.548 9.64018 139.605 9.79435L135.888 10.4277L134.455 1.91935L138.171 1.28601ZM139.33 8.53601C140.034 8.41935 140.584 8.19018 140.98 7.84435C141.38 7.5006 141.642 7.08601 141.771 6.60268C141.905 6.11935 141.923 5.60268 141.83 5.05268C141.74 4.51935 141.555 4.04435 141.271 3.62768C140.988 3.20685 140.598 2.89435 140.105 2.69435C139.609 2.49018 139.015 2.44435 138.321 2.56101L135.98 2.96101L136.988 8.93601L139.33 8.53601Z" fill="white"/>
<path d="M147.092 0.317627L153.217 0.359294L153.209 1.64263L148.417 1.60929L148.409 3.89263L152.517 3.91763L152.509 5.19263L148.4 5.16763L148.384 7.66763L153.175 7.70096L153.167 8.98429L147.042 8.94263L147.092 0.317627Z" fill="white"/>
<path d="M165.757 2.10938L160.682 9.98438L159.282 9.74271L157.166 0.609375L158.657 0.867708L159.891 6.36771C159.961 6.68021 160.036 7.00729 160.116 7.35104C160.193 7.69688 160.259 8.03229 160.316 8.35938C160.486 8.07188 160.661 7.78021 160.841 7.48438C161.018 7.19063 161.191 6.90938 161.357 6.64271L164.216 1.84271L165.757 2.10938Z" fill="white"/>
</svg>
