<svg xmlns="http://www.w3.org/2000/svg" width="375" viewBox="0 0 375 375" height="375" version="1.0"><g><g><g><path d="M 3.109375 0 L 6.664062 0 L 6.664062 -13.769531 C 6.664062 -15.371094 7.90625 -17.8125 9.730469 -17.8125 C 10.394531 -17.8125 11.015625 -17.503906 11.460938 -16.878906 L 23.855469 0 L 28.34375 0 L 14.4375 -18.925781 C 13.636719 -19.992188 13.816406 -21.191406 14.925781 -21.945312 C 19.855469 -25.277344 23.320312 -27.320312 28.476562 -30.742188 L 23.855469 -30.742188 L 8.394531 -18.480469 C 7.996094 -18.167969 7.683594 -18.035156 7.417969 -18.035156 C 6.929688 -18.035156 6.664062 -18.480469 6.664062 -19.324219 L 6.664062 -44.421875 L 3.109375 -44.421875 Z M 3.109375 0" transform="translate(107.37 213.741)"/></g></g></g><g><g><g><path d="M 17.503906 0.886719 C 23.5 0.886719 27.007812 -1.820312 29.050781 -6.085938 L 28.121094 -6.617188 C 26.609375 -3.289062 23.457031 -0.445312 18.523438 -0.445312 C 12.171875 -0.445312 7.90625 -4.664062 6.484375 -11.726562 C 6.21875 -12.972656 7.019531 -13.816406 8.394531 -13.769531 C 8.882812 -13.769531 9.375 -13.769531 9.949219 -13.769531 C 19.367188 -13.769531 28.253906 -18.570312 28.253906 -25.097656 C 28.253906 -29.628906 23.144531 -31.628906 18.570312 -31.628906 C 9.59375 -31.628906 2.222656 -24.300781 2.222656 -15.460938 C 2.222656 -5.417969 8.617188 0.886719 17.503906 0.886719 Z M 6.042969 -16.792969 C 6.21875 -23.855469 10.707031 -30.742188 18.390625 -30.742188 C 21.679688 -30.742188 24.65625 -28.609375 24.65625 -24.789062 C 24.65625 -18.570312 15.726562 -14.480469 9.90625 -14.480469 C 9.019531 -14.480469 8.261719 -14.570312 7.640625 -14.660156 C 6.707031 -14.792969 5.996094 -15.769531 6.042969 -16.792969 Z M 6.042969 -16.792969" transform="translate(135.884 213.741)"/></g></g></g><g><g><g><path d="M 3.109375 0 L 6.664062 0 L 6.664062 -20.566406 C 6.664062 -25.765625 12.660156 -30.742188 18.613281 -30.742188 C 23.054688 -30.742188 27.140625 -27.542969 27.140625 -21.277344 L 27.140625 0 L 30.695312 0 L 30.695312 -21.367188 C 30.695312 -27.363281 26.03125 -31.628906 19.324219 -31.628906 C 14.703125 -31.628906 11.238281 -30.03125 8.039062 -26.964844 C 7.597656 -26.566406 7.285156 -26.34375 7.0625 -26.34375 C 6.796875 -26.34375 6.664062 -26.699219 6.664062 -27.453125 L 6.664062 -30.742188 L 3.109375 -30.742188 Z M 3.109375 0" transform="translate(166.486 213.741)"/></g></g></g><g><g><g><path d="M 2.488281 0 C 4.308594 -0.355469 5.910156 -0.488281 7.820312 -0.445312 C 10.839844 -0.355469 14.480469 0.886719 19.324219 0.886719 C 25.320312 0.886719 30.652344 -2.085938 30.652344 -5.773438 C 30.652344 -6.796875 30.074219 -7.597656 29.1875 -7.597656 C 25.585938 -7.597656 29.140625 -0.0429688 18.570312 -0.0429688 C 16.125 -0.0429688 11.90625 -0.976562 9.328125 -1.289062 C 7.996094 -1.464844 7.683594 -2 8.484375 -3.019531 C 11.59375 -7.019531 19.191406 -16.390625 19.191406 -16.390625 C 19.191406 -16.390625 23.410156 -21.234375 30.296875 -30.742188 C 28.742188 -30.472656 27.097656 -30.164062 24.921875 -30.253906 C 21.902344 -30.386719 19.28125 -31.628906 14.4375 -31.628906 C 9.285156 -31.628906 3.199219 -28.609375 3.199219 -24.921875 C 3.199219 -23.898438 3.777344 -23.101562 4.664062 -23.101562 C 8.261719 -23.101562 6.753906 -30.742188 15.28125 -30.742188 C 17.726562 -30.742188 20.835938 -29.71875 23.410156 -29.40625 C 24.789062 -29.230469 25.097656 -28.699219 24.253906 -27.675781 C 21.054688 -23.8125 15.816406 -17.101562 15.816406 -17.101562 C 15.816406 -17.101562 9.152344 -9.152344 2.488281 0 Z M 2.488281 0" transform="translate(200.286 213.741)"/></g></g></g><g><g><g><path d="M 17.28125 0.886719 C 26.296875 0.886719 32.339844 -5.597656 32.339844 -15.371094 C 32.339844 -25.144531 26.296875 -31.628906 17.28125 -31.628906 C 8.261719 -31.628906 2.222656 -25.144531 2.222656 -15.371094 C 2.222656 -5.597656 8.261719 0.886719 17.28125 0.886719 Z M 5.863281 -15.371094 C 5.863281 -24.609375 10.4375 -30.742188 17.28125 -30.742188 C 24.121094 -30.742188 28.699219 -24.609375 28.699219 -15.371094 C 28.699219 -6.128906 24.121094 0 17.28125 0 C 10.4375 0 5.863281 -6.128906 5.863281 -15.371094 Z M 5.863281 -15.371094" transform="translate(233.065 213.741)"/></g></g></g><g><g><g><path d="M 3.359375 -8.140625 C 3.972656 -8.242188 4.53125 -8.238281 5.03125 -8.125 C 5.53125 -8.019531 5.960938 -7.820312 6.328125 -7.53125 C 6.703125 -7.238281 7.003906 -6.882812 7.234375 -6.46875 C 7.460938 -6.050781 7.617188 -5.59375 7.703125 -5.09375 C 7.816406 -4.414062 7.78125 -3.773438 7.59375 -3.171875 C 7.40625 -2.566406 7.0625 -2.050781 6.5625 -1.625 C 6.070312 -1.195312 5.421875 -0.914062 4.609375 -0.78125 L 1.390625 -0.234375 L 0.140625 -7.59375 Z M 4.375 -1.859375 C 4.976562 -1.960938 5.453125 -2.164062 5.796875 -2.46875 C 6.148438 -2.769531 6.378906 -3.128906 6.484375 -3.546875 C 6.597656 -3.960938 6.613281 -4.410156 6.53125 -4.890625 C 6.457031 -5.347656 6.296875 -5.757812 6.046875 -6.125 C 5.804688 -6.5 5.46875 -6.769531 5.03125 -6.9375 C 4.601562 -7.101562 4.09375 -7.132812 3.5 -7.03125 L 1.46875 -6.6875 L 2.34375 -1.515625 Z M 4.375 -1.859375" transform="translate(226.9 160.114)"/></g></g></g><g><g><g><path d="M 1.453125 -7.453125 L 6.765625 -7.421875 L 6.75 -6.3125 L 2.59375 -6.34375 L 2.59375 -4.375 L 6.15625 -4.359375 L 6.140625 -3.25 L 2.578125 -3.265625 L 2.5625 -1.09375 L 6.71875 -1.0625 L 6.71875 0.046875 L 1.40625 0.015625 Z M 1.453125 -7.453125" transform="translate(236.591 158.584)"/></g></g></g><g><g><g><path d="M 9.25 -5.96875 L 4.859375 0.84375 L 3.65625 0.640625 L 1.8125 -7.265625 L 3.109375 -7.03125 L 4.171875 -2.28125 C 4.234375 -2.007812 4.296875 -1.722656 4.359375 -1.421875 C 4.429688 -1.117188 4.5 -0.832031 4.5625 -0.5625 C 4.695312 -0.800781 4.835938 -1.050781 4.984375 -1.3125 C 5.140625 -1.570312 5.296875 -1.816406 5.453125 -2.046875 L 7.9375 -6.203125 Z M 9.25 -5.96875" transform="translate(244.998 158.645)"/></g></g></g></svg>